<svg width="826" height="1024" viewBox="0 0 826 1024" fill="none" xmlns="http://www.w3.org/2000/svg">
<g clip-path="url(#clip0_1_3)">
<rect width="826" height="1024" fill="#62C5D4" fill-opacity="0.1"/>
<circle cx="686" cy="232" r="100" fill="#62C5D4"/>
<circle cx="367" cy="981" r="100" fill="#62C5D4"/>
<circle r="100" fill="#62C5D4"/>
<g clip-path="url(#clip1_1_3)">
<path d="M318.16 84.2801C320.852 88.518 322.121 90.768 322.121 93.115C322.121 97.75 318.678 99.9974 314.04 99.9974C311.996 99.9974 310.677 99.9948 307.342 98.2597C307.342 98.2597 305.181 96.2823 300.124 96.4854C295.02 96.2836 292.857 98.2846 292.857 98.2846C289.522 100.018 288.25 100 286.208 100C281.571 100 278.126 97.7552 278.126 93.1176C278.126 90.7707 279.398 88.5233 282.088 84.2827C282.088 84.2827 287.174 75.837 291.581 71.8638C294.765 68.9966 299.408 69.0071 299.408 69.0071H300.841C300.841 69.0071 305.686 68.994 308.672 71.8638C312.942 75.9812 318.16 84.2814 318.16 84.2801ZM288.794 63.3591C293.642 63.3591 297.572 57.2342 297.572 49.6796C297.572 42.1249 293.642 36 288.794 36C283.945 36 280.015 42.1249 280.015 49.6796C280.015 57.2342 283.945 63.3591 288.794 63.3591ZM280.381 76.6075C283.954 74.9577 284.769 69.108 282.2 63.5413C279.63 57.9746 274.65 54.7981 271.077 56.4466C267.503 58.0951 266.689 63.9462 269.258 69.5129C271.828 75.0796 276.807 78.2548 280.381 76.6075ZM309.204 63.3591C314.052 63.3591 317.984 57.2342 317.984 49.6796C317.984 42.1249 314.052 36 309.204 36C304.355 36 300.425 42.1249 300.425 49.6796C300.425 57.2342 304.355 63.3591 309.204 63.3591ZM326.922 56.4453C323.347 54.7955 318.369 57.9719 315.799 63.54C313.229 69.108 314.044 74.9577 317.619 76.6075C321.194 78.2561 326.172 75.0796 328.742 69.5129C331.312 63.9462 330.497 58.0951 326.922 56.4453Z" fill="#62C5D4"/>
</g>
<path d="M65.4014 1018.28C68.093 1022.52 69.3615 1024.77 69.3615 1027.12C69.3615 1031.75 65.919 1034 61.2814 1034C59.2371 1034 57.9175 1033.99 54.5825 1032.26C54.5825 1032.26 52.4216 1030.28 47.3647 1030.49C42.2605 1030.28 40.0983 1032.28 40.0983 1032.28C36.7633 1034.02 35.4909 1034 33.4492 1034C28.8116 1034 25.3665 1031.76 25.3665 1027.12C25.3665 1024.77 26.6389 1022.52 29.3292 1018.28C29.3292 1018.28 34.415 1009.84 38.822 1005.86C42.0063 1003 46.6492 1003.01 46.6492 1003.01H48.0815C48.0815 1003.01 52.9274 1002.99 55.9126 1005.86C60.1833 1009.98 65.4014 1018.28 65.4014 1018.28ZM36.0347 997.359C40.8833 997.359 44.8133 991.234 44.8133 983.68C44.8133 976.125 40.8833 970 36.0347 970C31.1861 970 27.2561 976.125 27.2561 983.68C27.2561 991.234 31.1861 997.359 36.0347 997.359ZM27.6218 1010.61C31.1953 1008.96 32.0104 1003.11 29.4406 997.541C26.8709 991.975 21.8913 988.798 18.3177 990.447C14.7442 992.095 13.9304 997.946 16.4988 1003.51C19.0686 1009.08 24.0482 1012.25 27.6218 1010.61ZM56.4446 997.359C61.2932 997.359 65.2245 991.234 65.2245 983.68C65.2245 976.125 61.2932 970 56.4446 970C51.596 970 47.6661 976.125 47.6661 983.68C47.6661 991.234 51.596 997.359 56.4446 997.359ZM74.1629 990.445C70.5881 988.795 65.6098 991.972 63.04 997.54C60.4703 1003.11 61.2853 1008.96 64.8602 1010.61C68.435 1012.26 73.4134 1009.08 75.9831 1003.51C78.5529 997.946 77.7378 992.095 74.1629 990.445Z" fill="#62C5D4"/>
<g clip-path="url(#clip2_1_3)">
<path d="M119.16 316.28C121.852 320.518 123.121 322.768 123.121 325.115C123.121 329.75 119.678 331.997 115.04 331.997C112.996 331.997 111.677 331.995 108.342 330.26C108.342 330.26 106.181 328.282 101.124 328.485C96.0196 328.284 93.8574 330.285 93.8574 330.285C90.5223 332.018 89.2499 332 87.2083 332C82.5707 332 79.1255 329.755 79.1255 325.118C79.1255 322.771 80.398 320.523 83.0883 316.283C83.0883 316.283 88.174 307.837 92.581 303.864C95.7654 300.997 100.408 301.007 100.408 301.007H101.84C101.84 301.007 106.686 300.994 109.672 303.864C113.942 307.981 119.16 316.281 119.16 316.28ZM89.7937 295.359C94.6423 295.359 98.5723 289.234 98.5723 281.68C98.5723 274.125 94.6423 268 89.7937 268C84.9451 268 81.0152 274.125 81.0152 281.68C81.0152 289.234 84.9451 295.359 89.7937 295.359ZM81.3808 308.608C84.9543 306.958 85.7694 301.108 83.1997 295.541C80.6299 289.975 75.6503 286.798 72.0767 288.447C68.5032 290.095 67.6894 295.946 70.2579 301.513C72.8276 307.08 77.8072 310.255 81.3808 308.608ZM110.204 295.359C115.052 295.359 118.984 289.234 118.984 281.68C118.984 274.125 115.052 268 110.204 268C105.355 268 101.425 274.125 101.425 281.68C101.425 289.234 105.355 295.359 110.204 295.359ZM127.922 288.445C124.347 286.795 119.369 289.972 116.799 295.54C114.229 301.108 115.044 306.958 118.619 308.608C122.194 310.256 127.172 307.08 129.742 301.513C132.312 295.946 131.497 290.095 127.922 288.445Z" fill="#62C5D4"/>
</g>
<path d="M784.401 704.28C787.093 708.518 788.362 710.768 788.362 713.115C788.362 717.75 784.919 719.997 780.281 719.997C778.237 719.997 776.918 719.995 773.583 718.26C773.583 718.26 771.422 716.282 766.365 716.485C761.261 716.284 759.098 718.285 759.098 718.285C755.763 720.018 754.491 720 752.449 720C747.812 720 744.367 717.755 744.367 713.118C744.367 710.771 745.639 708.523 748.329 704.283C748.329 704.283 753.415 695.837 757.822 691.864C761.006 688.997 765.649 689.007 765.649 689.007H767.081C767.081 689.007 771.927 688.994 774.913 691.864C779.183 695.981 784.401 704.281 784.401 704.28ZM755.035 683.359C759.883 683.359 763.813 677.234 763.813 669.68C763.813 662.125 759.883 656 755.035 656C750.186 656 746.256 662.125 746.256 669.68C746.256 677.234 750.186 683.359 755.035 683.359ZM746.622 696.608C750.195 694.958 751.01 689.108 748.441 683.541C745.871 677.975 740.891 674.798 737.318 676.447C733.744 678.095 732.93 683.946 735.499 689.513C738.069 695.08 743.048 698.255 746.622 696.608ZM775.445 683.359C780.293 683.359 784.224 677.234 784.224 669.68C784.224 662.125 780.293 656 775.445 656C770.596 656 766.666 662.125 766.666 669.68C766.666 677.234 770.596 683.359 775.445 683.359ZM793.163 676.445C789.588 674.795 784.61 677.972 782.04 683.54C779.47 689.108 780.285 694.958 783.86 696.608C787.435 698.256 792.413 695.08 794.983 689.513C797.553 683.946 796.738 678.095 793.163 676.445Z" fill="#62C5D4"/>
<g clip-path="url(#clip3_1_3)">
<path d="M657.092 837.408C661.972 838.588 664.447 839.326 666.077 841.015C669.296 844.35 668.38 848.357 665.043 851.578C663.572 852.998 662.621 853.912 659.016 854.98C659.016 854.98 656.088 855.058 652.591 858.716C648.778 862.115 648.612 865.057 648.612 865.057C647.416 868.62 646.488 869.491 645.019 870.908C641.682 874.129 637.644 874.906 634.423 871.569C632.794 869.881 632.148 867.38 631.139 862.46C631.139 862.46 628.933 852.852 629.345 846.932C629.645 842.658 632.993 839.441 632.993 839.441L634.024 838.447C634.024 838.447 637.501 835.072 641.642 835.064C647.574 835.06 657.093 837.409 657.092 837.408ZM621.433 842.749C624.922 839.381 623.496 832.245 618.25 826.809C613.003 821.374 605.922 819.696 602.434 823.063C598.945 826.43 600.371 833.566 605.617 839.002C610.863 844.438 617.945 846.116 621.433 842.749ZM624.58 858.124C626.006 854.455 622.53 849.68 616.815 847.459C611.1 845.238 605.311 846.411 603.885 850.079C602.459 853.746 605.936 858.522 611.65 860.743C617.365 862.964 623.153 861.791 624.58 858.124ZM636.119 828.575C639.608 825.208 638.183 818.07 632.936 812.635C627.69 807.199 620.608 805.522 617.119 808.889C613.63 812.256 615.056 819.392 620.303 824.828C625.549 830.264 632.63 831.942 636.119 828.575ZM644.066 811.295C640.348 812.591 638.972 818.334 640.99 824.125C643.008 829.916 647.657 833.559 651.375 832.263C655.092 830.967 656.468 825.224 654.451 819.434C652.434 813.644 647.784 810 644.066 811.295Z" fill="#62C5D4"/>
</g>
<path d="M122.314 562.011C119.557 563.066 117.057 564.422 114.86 565.999C109.549 569.773 105.693 575.029 103.525 580.726C98.9459 592.775 100.038 600.878 104.074 611.212C107.223 619.276 114.703 624.146 122.235 624.619C126.254 624.782 130.998 622.656 133.546 619.609C134.829 618.085 135.563 616.42 135.674 614.722C135.766 613.031 135.312 611.222 133.74 609.101L117.861 587.676C115.376 584.328 118.284 582.507 120.029 584.613L137.703 605.985C139.926 608.978 140.91 612.274 140.733 615.289C140.543 618.326 139.254 621.012 137.429 623.173C133.783 627.533 127.99 630.167 122.233 629.904C117.468 629.702 112.333 628.016 108.04 624.624C117.378 668.182 101.074 675.179 86.6619 706.055C75.6409 729.62 82.1615 759.361 98.6238 776.192C105.176 782.89 100.062 788.903 92.48 782.257C78.73 770.229 71.2257 753.583 71.6481 736C71.8167 729.34 65.492 723.858 60.5586 726.187C58.217 727.308 56.8178 729.968 56.8857 733.139C57.1814 763.729 73.2815 789.932 87.8738 798.839C95.177 803.279 103.382 803.425 109.868 799.44C112.717 797.68 116.442 794.335 119.961 790.078C125.357 791.296 130.964 790.999 136.583 788.681L172.642 773.806C169.023 766.758 161.381 761.7 155.388 763.812C153.649 764.391 151.697 762.598 151.687 760.418L151.729 730.683C151.734 724.969 149.684 720.391 146.433 716.791C143.176 713.177 138.631 710.907 134.102 709.778C129.464 708.627 129.664 702.945 134.167 703.742C139.821 704.764 145.439 707.907 149.743 712.689C154.053 717.485 156.991 724.14 156.982 731.616L156.926 758.355C158.899 758.193 160.928 758.476 162.947 759.091C170.589 752.62 174.439 746.262 175.93 739.348L192.651 765.555L223.466 752.844C219.842 745.867 212.35 740.969 206.563 743.356C205.471 743.806 204.155 743.282 203.364 742.075C196.413 731.622 190.731 722.361 185.258 709.094C184.14 706.386 186.862 704.936 188.053 707.075C194.196 718.04 199.016 728 206.712 737.785C215.308 734.411 223.812 741.747 228.167 750.901L243.86 744.427C239.629 734.171 229.769 728.446 221.351 731.039C186.637 684.953 197.364 682.508 169.862 630.828C166.866 625.216 167.193 619.023 172.025 613.344L185.109 597.922C193.966 588.382 191.759 580.755 189.627 574.095C187.128 566.311 182.048 563.931 176.889 566.059C162.692 571.916 161.12 569.484 152.136 564.656C140.999 558.676 130.56 558.887 122.314 562.011Z" fill="#62C5D4"/>
<path d="M784.255 390.357C781.321 390.027 778.478 390.083 775.802 390.475C769.351 391.389 763.512 394.288 758.971 398.353C749.369 406.954 746.618 414.654 745.458 425.686C744.553 434.296 748.962 442.058 755.435 445.936C758.93 447.927 764.12 448.217 767.783 446.68C769.623 445.915 771.039 444.773 771.918 443.316C772.776 441.856 773.203 440.041 772.782 437.434L768.514 411.11C767.844 406.995 771.263 406.713 771.847 409.385L777.732 436.487C778.333 440.166 777.693 443.546 776.151 446.143C774.588 448.753 772.21 450.548 769.596 451.629C764.356 453.828 758 453.508 753.006 450.631C748.866 448.263 745.079 444.407 742.822 439.422C731.116 482.404 713.419 481.133 686.438 501.943C665.827 517.815 657.962 547.23 664.857 569.741C667.602 578.699 660.298 581.692 656.614 572.307C649.923 555.309 650.901 537.075 659.35 521.65C662.558 515.811 659.457 508.036 654.005 507.84C651.41 507.761 648.946 509.481 647.55 512.329C633.765 539.639 636.035 570.309 644.908 584.922C649.356 592.22 656.578 596.117 664.17 595.556C667.509 595.301 672.354 594.04 677.435 591.874C681.669 595.434 686.786 597.745 692.842 598.266L731.705 601.611C731.726 593.688 727.261 585.686 720.967 584.81C719.157 584.525 718.246 582.037 719.238 580.095L732.93 553.7C735.558 548.627 735.839 543.619 734.605 538.927C733.371 534.221 730.376 530.118 726.871 527.034C723.28 523.883 726.066 518.927 729.701 521.703C734.254 525.207 737.801 530.579 739.429 536.803C741.055 543.043 740.609 550.304 737.168 556.941L724.84 580.669C726.666 581.43 728.338 582.614 729.85 584.087C739.61 581.848 745.95 577.968 750.449 572.51L753.268 603.47L786.479 606.328C786.464 598.466 782.058 590.675 775.821 590.138C774.644 590.037 773.716 588.966 773.568 587.531C772.193 575.053 771.398 564.218 772.628 549.919C772.879 547 775.963 546.961 776.038 549.409C776.46 561.97 776.169 573.031 778.511 585.257C787.698 586.207 791.883 596.63 791.548 606.761L808.461 608.217C809.412 597.163 803.282 587.549 794.613 585.987C784.939 529.106 795.591 531.86 794.892 473.323C794.807 466.961 797.942 461.61 804.843 458.784L823.547 451.093C835.796 446.685 837.337 438.896 838.502 432.001C839.856 423.939 836.437 419.492 830.877 419.013C815.575 417.697 815.296 414.814 809.533 406.4C802.385 395.974 793.015 391.368 784.255 390.357Z" fill="#62C5D4"/>
</g>
<defs>
<clipPath id="clip0_1_3">
<rect width="826" height="1024" fill="white"/>
</clipPath>
<clipPath id="clip1_1_3">
<rect width="64" height="64" fill="white" transform="translate(267 36)"/>
</clipPath>
<clipPath id="clip2_1_3">
<rect width="64" height="64" fill="white" transform="translate(68 268)"/>
</clipPath>
<clipPath id="clip3_1_3">
<rect width="64" height="64" fill="white" transform="translate(586.752 838.198) rotate(-43.9843)"/>
</clipPath>
</defs>
</svg>
